#!OML:ASF E:/inclinewalkrobotboard/Project1/Captureday1/Session1/subject1.ASF
:FULLY-SPECIFIED
:DEGREES
313
root 0 0 0 1.9198982790522052 -9.14731252695993 1.4298001826600562
lowerback 0.9588700002364494 -1.5719582836482076 -3.273634971940387
upperback -0.7248410395833109 -2.014934487567985 2.3883785178496506
thorax -1.0306647447210033 -0.9784681766476404 4.275903197703452
lowerneck -30.50715707600454 -2.3248641946310036 -7.493387910500216
upperneck 6.341941949179924 -1.160051147780529 5.588962719661481
head 6.573278634500975 -0.08978418855999015 2.871601417997207
rclavicle -6.469539947218092E-16 -2.2329704500883934E-15
rhumerus -32.529372724835554 -5.089882946635788 -80.07156151850735
rradius 29.89037036295868
rwrist 18.501285371076442
rhand -17.617896146312333 9.965756822235189
rfingers 7.125019999999943
rthumb 8.633481307466226 -19.877856265111664
lclavicle -6.431837724334578E-16 -1.3155297046855921E-15
lhumerus -9.881740185966501 7.269766990502519 88.70782679789966
lradius 61.488797186160525
lwrist -4.677642539041333
lhand -33.48384120814936 17.915554718539894
lfingers 7.1250200000000055
lthumb -6.676309512811415 47.566924076198504
rfemur -33.21339696813386 3.4614888513535256 17.978700894931393
rtibia 29.89847170840504
rfoot -6.372051754383408 -12.492353191989999
rtoes -6.56498678101863
lfemur 12.067570943867285 -3.14579230694617 -30.177341889843355
ltibia 20.415498046500954
lfoot -16.234580630086185 -3.557733231574986
ltoes -4.09556906001559
314
root 0 0 0 2.0367555651377116 -9.28286052570872 1.54242046178344
lowerback 0.8598618764912205 -1.653177393749159 -3.3293523994525653
upperback -0.6349700693291414 -2.1345840272982395 2.4275782908007164
thorax -0.8772663099582623 -1.0388694946235877 4.343261763793919
lowerneck -31.46800319074257 -2.391095419418659 -7.525829970235829
upperneck 5.217306938230548 -1.189955331010162 5.715881952817849
head 6.3099717611717 -0.052333830929392616 2.8983597471045126
rclavicle -1.8673512335733777E-16 -3.0283231409629658E-15
rhumerus -32.56575287695822 -4.966062813476071 -79.98363390800466
rradius 29.840664322635288
rwrist 18.538793555139385
rhand -17.630251355040713 9.954200801777164
rfingers 7.125019999999944
rthumb 8.620255399045108 -19.904223317652402
lclavicle -4.307109435360826E-16 -1.585801969110964E-15
lhumerus -9.855832393305064 6.985758057398198 88.53651348880202
lradius 61.677982171170726
lwrist -4.582477667099948
lhand -33.439759021430824 18.004701487937574
lfingers 7.125020000000005
lthumb -6.629831020635551 47.66234348483692
rfemur -34.22791324272164 4.231969811781433 17.53059315629258
rtibia 25.06159180752249
rfoot -5.853115557447533 -12.627593565309656
rtoes -6.77566760127362
lfemur 17.709601434885776 -3.66078904707612 -29.3628492679104
ltibia 21.887781322944868
lfoot -12.427429347962054 -6.665548937305628
ltoes -9.894588002863793
315
root 0 0 0 2.140312680943515 -9.401103972924354 1.6427921983017553
lowerback 0.7741820591597279 -1.721050913684385 -3.380996576859693
upperback -0.5649812165435029 -2.234919300881008 2.4657414706004124
thorax -0.7514982783228505 -1.0903982230943805 4.407815954230223
lowerneck -32.253204422538765 -2.4249370393940257 -7.55292019735263
upperneck 4.291494166643098 -1.1855313379077816 5.817078352443177
head 6.0917496462764 -0.009652470880586059 2.924099811949131
rclavicle -9.53909654954658E-16 -3.766772971661077E-15
rhumerus -32.671368963169535 -4.990462618875103 -79.89780967977217
rradius 29.784591310157335
rwrist 18.693202351862823
rhand -17.593794777553885 9.860737692068554
rfingers 7.125019999999947
rthumb 8.654123298746885 -20.01254563592192
lclavicle -9.494646799543532E-16 -1.7505909905478743E-15
lhumerus -9.310796891908087 7.009694651300248 88.09084038676193
lradius 61.97551706161112
lwrist -4.682912509271147
lhand -33.533771205185566 18.009461861875913
lfingers 7.125020000000004
lthumb -6.716246434848897 47.66548839426514
rfemur -34.59154633231524 4.685768748207845 17.741752152629886
rtibia 23.002106987750313
rfoot -5.16238096005085 -12.361561705008281
rtoes -5.498355647051254
lfemur 20.24278966803268 -3.1046634182817447 -27.66340484178085
ltibia 29.147796939905938
lfoot -7.379714235154811 -10.327312547439147
ltoes -14.934416088073672
316
root 0 0 0 2.184369850765698 -9.456530241201385 1.6881656503353226
lowerback 0.7539515636681609 -1.7545118955210726 -3.395620012686689
upperback -0.524555657213013 -2.2841457505036384 2.486422635047971
thorax -0.6963314803106049 -1.116798775787588 4.43390428341986
lowerneck -32.634253835672254 -2.428940154909868 -7.543817313710335
upperneck 3.868060154100391 -1.1632952508958467 5.834202052932716
head 5.993244853659448 0.016672656135028247 2.925286503407767
rclavicle -2.2978833187329048E-15 -4.199674356297044E-15
rhumerus -32.78903109547256 -5.149808065724055 -79.85094414932153
rradius 29.745726825567015
rwrist 18.868773113467025
rhand -17.5301387743756 9.746799319605447
rfingers 7.1250199999999495
rthumb 8.71473125941235 -20.138846641240338
lclavicle -1.2586156444512586E-15 -1.8823176637888222E-15
lhumerus -8.863009231850688 7.294434914524969 87.79977342452665
lradius 62.05684640100988
lwrist -4.843394088572433
lhand -33.636655754274486 17.936200212345156
lfingers 7.125020000000004
lthumb -6.813720882198307 47.58735134374601
rfemur -33.91554664012402 5.366585768851123 19.54400036817252
rtibia 21.02123116835356
rfoot -4.432712910266252 -11.748890868088615
rtoes -1.4612025055231799
lfemur 16.433285756143505 -1.97734955294324 -24.23869534621338
ltibia 38.48978936795853
lfoot -0.35833037364379017 -13.805495354898246
ltoes -17.22574675763107
